<svg width="195" height="33" viewBox="0 0 195 33" fill="none" xmlns="http://www.w3.org/2000/svg">
<path d="M0.212358 25.5V0.0454538H10.255C12.1856 0.0454538 13.8304 0.41418 15.1893 1.15163C16.5482 1.8808 17.5839 2.89583 18.2965 4.19673C19.0174 5.48935 19.3778 6.98082 19.3778 8.67116C19.3778 10.3615 19.0133 11.853 18.2841 13.1456C17.5549 14.4382 16.4985 15.445 15.1147 16.1658C13.7392 16.8867 12.0737 17.2472 10.1183 17.2472H3.71733V12.9343H9.24822C10.284 12.9343 11.1374 12.7562 11.8086 12.3999C12.488 12.0353 12.9935 11.534 13.3249 10.896C13.6647 10.2496 13.8345 9.50805 13.8345 8.67116C13.8345 7.82599 13.6647 7.08854 13.3249 6.45881C12.9935 5.82078 12.488 5.32777 11.8086 4.97976C11.1291 4.62346 10.2674 4.44531 9.22337 4.44531H5.59411V25.5H0.212358ZM22.7741 25.5V6.40909H27.9072V9.74006H28.1061C28.4541 8.55516 29.0383 7.66027 29.8586 7.0554C30.6789 6.44223 31.6235 6.13565 32.6924 6.13565C32.9575 6.13565 33.2434 6.15222 33.55 6.18537C33.8566 6.21851 34.1259 6.26409 34.3579 6.32209V11.0202C34.1093 10.9457 33.7654 10.8794 33.3263 10.8214C32.8871 10.7634 32.4852 10.7344 32.1207 10.7344C31.3418 10.7344 30.6457 10.9042 30.0326 11.244C29.4277 11.5754 28.9471 12.0394 28.5908 12.636C28.2428 13.2326 28.0688 13.9203 28.0688 14.6992V25.5H22.7741ZM44.8324 25.8729C42.9018 25.8729 41.2321 25.4627 39.8235 24.6424C38.4232 23.8138 37.3419 22.6621 36.5795 21.1871C35.8172 19.704 35.4361 17.9846 35.4361 16.0291C35.4361 14.0571 35.8172 12.3336 36.5795 10.8587C37.3419 9.37547 38.4232 8.22372 39.8235 7.40341C41.2321 6.57481 42.9018 6.16051 44.8324 6.16051C46.763 6.16051 48.4285 6.57481 49.8288 7.40341C51.2375 8.22372 52.3229 9.37547 53.0852 10.8587C53.8475 12.3336 54.2287 14.0571 54.2287 16.0291C54.2287 17.9846 53.8475 19.704 53.0852 21.1871C52.3229 22.6621 51.2375 23.8138 49.8288 24.6424C48.4285 25.4627 46.763 25.8729 44.8324 25.8729ZM44.8572 21.7713C45.7356 21.7713 46.4689 21.5227 47.0572 21.0256C47.6455 20.5201 48.0888 19.8324 48.3871 18.9624C48.6937 18.0923 48.8469 17.1022 48.8469 15.9918C48.8469 14.8815 48.6937 13.8913 48.3871 13.0213C48.0888 12.1513 47.6455 11.4635 47.0572 10.9581C46.4689 10.4527 45.7356 10.1999 44.8572 10.1999C43.9706 10.1999 43.2249 10.4527 42.62 10.9581C42.0234 11.4635 41.5719 12.1513 41.2653 13.0213C40.967 13.8913 40.8178 14.8815 40.8178 15.9918C40.8178 17.1022 40.967 18.0923 41.2653 18.9624C41.5719 19.8324 42.0234 20.5201 42.62 21.0256C43.2249 21.5227 43.9706 21.7713 44.8572 21.7713ZM57.6715 32.6591V6.40909H62.8917V9.61577H63.1278C63.3598 9.10204 63.6954 8.58002 64.1346 8.04972C64.582 7.51113 65.1621 7.06368 65.8746 6.70739C66.5955 6.3428 67.4904 6.16051 68.5593 6.16051C69.9513 6.16051 71.2357 6.52509 72.4123 7.25426C73.5889 7.97514 74.5294 9.06475 75.2337 10.5231C75.938 11.9731 76.2901 13.7919 76.2901 15.9794C76.2901 18.1089 75.9463 19.907 75.2585 21.3736C74.5791 22.8319 73.651 23.9381 72.4744 24.6921C71.3061 25.4379 69.9969 25.8107 68.5469 25.8107C67.5194 25.8107 66.6452 25.6409 65.9244 25.3011C65.2118 24.9614 64.6276 24.5347 64.1719 24.021C63.7161 23.4989 63.3681 22.9728 63.1278 22.4425H62.9663V32.6591H57.6715ZM62.8544 15.9545C62.8544 17.0897 63.0118 18.0799 63.3267 18.9251C63.6416 19.7702 64.0973 20.429 64.6939 20.9013C65.2905 21.3653 66.0155 21.5973 66.869 21.5973C67.7307 21.5973 68.4599 21.3612 69.0565 20.8888C69.6531 20.4083 70.1046 19.7454 70.4112 18.9002C70.7261 18.0468 70.8835 17.0649 70.8835 15.9545C70.8835 14.8525 70.7302 13.883 70.4237 13.0462C70.1171 12.2093 69.6655 11.5547 69.0689 11.0824C68.4723 10.6101 67.739 10.3739 66.869 10.3739C66.0072 10.3739 65.2781 10.6018 64.6815 11.0575C64.0932 11.5133 63.6416 12.1596 63.3267 12.9964C63.0118 13.8333 62.8544 14.8194 62.8544 15.9545ZM88.5202 25.8729C86.5565 25.8729 84.8661 25.4751 83.4492 24.6797C82.0406 23.8759 80.9551 22.7408 80.1928 21.2741C79.4305 19.7992 79.0494 18.055 79.0494 16.0415C79.0494 14.0778 79.4305 12.3543 80.1928 10.8711C80.9551 9.3879 82.0282 8.23201 83.4119 7.40341C84.804 6.57481 86.4363 6.16051 88.3089 6.16051C89.5684 6.16051 90.7409 6.36352 91.8263 6.76953C92.9201 7.16726 93.873 7.76799 94.685 8.57173C95.5053 9.37547 96.1433 10.3864 96.5991 11.6044C97.0548 12.8142 97.2827 14.2311 97.2827 15.8551V17.3093H81.1623V14.0281H92.2987C92.2987 13.2657 92.1329 12.5904 91.8015 12.0021C91.4701 11.4138 91.0102 10.954 90.4219 10.6225C89.8419 10.2828 89.1665 10.1129 88.396 10.1129C87.5922 10.1129 86.8796 10.2994 86.2582 10.6722C85.645 11.0368 85.1644 11.5298 84.8164 12.1513C84.4684 12.7644 84.2902 13.448 84.282 14.2021V17.3217C84.282 18.2663 84.456 19.0825 84.804 19.7702C85.1603 20.458 85.6616 20.9883 86.3079 21.3612C86.9542 21.734 87.7206 21.9205 88.6072 21.9205C89.1955 21.9205 89.7341 21.8376 90.223 21.6719C90.7119 21.5062 91.1303 21.2576 91.4783 20.9261C91.8263 20.5947 92.0915 20.1887 92.2738 19.7081L97.1708 20.0312C96.9222 21.2079 96.4126 22.2353 95.642 23.1136C94.8797 23.9837 93.8937 24.6631 92.6839 25.152C91.4825 25.6326 90.0946 25.8729 88.5202 25.8729ZM100.738 25.5V6.40909H105.871V9.74006H106.07C106.418 8.55516 107.002 7.66027 107.822 7.0554C108.643 6.44223 109.587 6.13565 110.656 6.13565C110.921 6.13565 111.207 6.15222 111.514 6.18537C111.82 6.21851 112.09 6.26409 112.322 6.32209V11.0202C112.073 10.9457 111.729 10.8794 111.29 10.8214C110.851 10.7634 110.449 10.7344 110.085 10.7344C109.306 10.7344 108.61 10.9042 107.996 11.244C107.392 11.5754 106.911 12.0394 106.555 12.636C106.207 13.2326 106.033 13.9203 106.033 14.6992V25.5H100.738ZM115.159 25.5V0.0454538H120.54V21.0629H131.453V25.5H115.159ZM140.362 25.8604C139.143 25.8604 138.058 25.6491 137.105 25.2266C136.152 24.7957 135.398 24.1618 134.843 23.3249C134.296 22.4798 134.023 21.4274 134.023 20.168C134.023 19.1074 134.217 18.2166 134.607 17.4957C134.996 16.7749 135.527 16.1948 136.198 15.7557C136.869 15.3165 137.631 14.9851 138.485 14.7614C139.346 14.5376 140.25 14.3802 141.194 14.2891C142.305 14.1731 143.199 14.0653 143.879 13.9659C144.558 13.8582 145.051 13.7008 145.358 13.4936C145.665 13.2865 145.818 12.9799 145.818 12.5739V12.4993C145.818 11.7121 145.569 11.1031 145.072 10.6722C144.583 10.2414 143.887 10.0259 142.984 10.0259C142.031 10.0259 141.273 10.2372 140.71 10.6598C140.146 11.0741 139.773 11.5961 139.591 12.2259L134.694 11.8281C134.942 10.6681 135.431 9.66548 136.161 8.82031C136.89 7.96686 137.83 7.31226 138.982 6.85653C140.142 6.39252 141.484 6.16051 143.009 6.16051C144.069 6.16051 145.085 6.2848 146.054 6.53338C147.032 6.78196 147.898 7.16726 148.652 7.68927C149.414 8.21129 150.015 8.88246 150.454 9.70277C150.893 10.5148 151.113 11.4884 151.113 12.6236V25.5H146.091V22.8526H145.942C145.636 23.4492 145.225 23.9754 144.712 24.4311C144.198 24.8786 143.581 25.2307 142.86 25.4876C142.139 25.7362 141.306 25.8604 140.362 25.8604ZM141.878 22.2063C142.657 22.2063 143.344 22.053 143.941 21.7464C144.538 21.4316 145.006 21.009 145.346 20.4787C145.685 19.9484 145.855 19.3477 145.855 18.6765V16.6506C145.689 16.7583 145.462 16.8577 145.172 16.9489C144.89 17.0317 144.571 17.1104 144.214 17.185C143.858 17.2513 143.502 17.3134 143.146 17.3714C142.789 17.4212 142.466 17.4667 142.176 17.5082C141.555 17.5993 141.012 17.7443 140.548 17.9432C140.084 18.142 139.723 18.4113 139.467 18.7511C139.21 19.0825 139.081 19.4968 139.081 19.994C139.081 20.7148 139.342 21.2659 139.864 21.647C140.395 22.0199 141.066 22.2063 141.878 22.2063ZM160.515 14.4631V25.5H155.22V6.40909H160.267V9.77734H160.49C160.913 8.66702 161.621 7.78871 162.616 7.1424C163.61 6.48781 164.816 6.16051 166.232 6.16051C167.558 6.16051 168.714 6.45052 169.7 7.03054C170.686 7.61056 171.453 8.43916 171.999 9.51633C172.546 10.5852 172.82 11.8613 172.82 13.3445V25.5H167.525V14.2891C167.533 13.1207 167.235 12.2093 166.63 11.5547C166.025 10.8918 165.193 10.5604 164.132 10.5604C163.419 10.5604 162.79 10.7137 162.243 11.0202C161.704 11.3268 161.282 11.7743 160.975 12.3626C160.677 12.9426 160.523 13.6428 160.515 14.4631ZM184.028 25.8107C182.578 25.8107 181.264 25.4379 180.088 24.6921C178.919 23.9381 177.991 22.8319 177.304 21.3736C176.624 19.907 176.284 18.1089 176.284 15.9794C176.284 13.7919 176.637 11.9731 177.341 10.5231C178.045 9.06475 178.981 7.97514 180.15 7.25426C181.326 6.52509 182.615 6.16051 184.015 6.16051C185.084 6.16051 185.975 6.3428 186.687 6.70739C187.408 7.06368 187.988 7.51113 188.427 8.04972C188.875 8.58002 189.215 9.10204 189.447 9.61577H189.608V0.0454538H194.891V25.5H189.67V22.4425H189.447C189.198 22.9728 188.846 23.4989 188.39 24.021C187.943 24.5347 187.359 24.9614 186.638 25.3011C185.925 25.6409 185.055 25.8107 184.028 25.8107ZM185.706 21.5973C186.559 21.5973 187.28 21.3653 187.868 20.9013C188.465 20.429 188.92 19.7702 189.235 18.9251C189.559 18.0799 189.72 17.0897 189.72 15.9545C189.72 14.8194 189.563 13.8333 189.248 12.9964C188.933 12.1596 188.477 11.5133 187.881 11.0575C187.284 10.6018 186.559 10.3739 185.706 10.3739C184.835 10.3739 184.102 10.6101 183.506 11.0824C182.909 11.5547 182.457 12.2093 182.151 13.0462C181.844 13.883 181.691 14.8525 181.691 15.9545C181.691 17.0649 181.844 18.0468 182.151 18.9002C182.466 19.7454 182.917 20.4083 183.506 20.8888C184.102 21.3612 184.835 21.5973 185.706 21.5973Z" fill="#3B3A5D"/>
</svg>
