<svg width="116" height="48" viewBox="0 0 116 48" fill="none" xmlns="http://www.w3.org/2000/svg">
<path d="M8.558 12.656C8.46467 12.432 8.33867 12.1473 8.18 11.802C8.03067 11.4567 7.86733 11.0833 7.69 10.682C7.51267 10.2807 7.32133 9.87 7.116 9.45C6.92 9.02067 6.73333 8.61933 6.556 8.246C6.37867 7.86333 6.21067 7.52267 6.052 7.224C5.90267 6.92533 5.78133 6.69667 5.688 6.538C5.58533 7.63933 5.50133 8.834 5.436 10.122C5.37067 11.4007 5.31467 12.6933 5.268 14H3.938C3.97533 13.16 4.01733 12.3153 4.064 11.466C4.11067 10.6073 4.162 9.76733 4.218 8.946C4.28333 8.11533 4.34867 7.308 4.414 6.524C4.48867 5.74 4.568 4.998 4.652 4.298H5.842C6.094 4.70867 6.36467 5.194 6.654 5.754C6.94333 6.314 7.23267 6.902 7.522 7.518C7.81133 8.12467 8.09133 8.736 8.362 9.352C8.63267 9.95867 8.88 10.514 9.104 11.018C9.328 10.514 9.57533 9.95867 9.846 9.352C10.1167 8.736 10.3967 8.12467 10.686 7.518C10.9753 6.902 11.2647 6.314 11.554 5.754C11.8433 5.194 12.114 4.70867 12.366 4.298H13.556C13.8733 7.42467 14.1113 10.6587 14.27 14H12.94C12.8933 12.6933 12.8373 11.4007 12.772 10.122C12.7067 8.834 12.6227 7.63933 12.52 6.538C12.4267 6.69667 12.3007 6.92533 12.142 7.224C11.9927 7.52267 11.8293 7.86333 11.652 8.246C11.4747 8.61933 11.2833 9.02067 11.078 9.45C10.882 9.87 10.6953 10.2807 10.518 10.682C10.3407 11.0833 10.1727 11.4567 10.014 11.802C9.86467 12.1473 9.74333 12.432 9.65 12.656H8.558ZM22.7413 10.36C22.7413 10.9387 22.6573 11.4613 22.4893 11.928C22.3213 12.3947 22.0833 12.796 21.7753 13.132C21.4766 13.468 21.1173 13.7293 20.6973 13.916C20.2773 14.0933 19.82 14.182 19.3253 14.182C18.8306 14.182 18.3733 14.0933 17.9533 13.916C17.5333 13.7293 17.1693 13.468 16.8613 13.132C16.5626 12.796 16.3293 12.3947 16.1613 11.928C15.9933 11.4613 15.9093 10.9387 15.9093 10.36C15.9093 9.79067 15.9933 9.27267 16.1613 8.806C16.3293 8.33 16.5626 7.924 16.8613 7.588C17.1693 7.252 17.5333 6.99533 17.9533 6.818C18.3733 6.63133 18.8306 6.538 19.3253 6.538C19.82 6.538 20.2773 6.63133 20.6973 6.818C21.1173 6.99533 21.4766 7.252 21.7753 7.588C22.0833 7.924 22.3213 8.33 22.4893 8.806C22.6573 9.27267 22.7413 9.79067 22.7413 10.36ZM21.3833 10.36C21.3833 9.53867 21.1966 8.89 20.8233 8.414C20.4593 7.92867 19.96 7.686 19.3253 7.686C18.6906 7.686 18.1866 7.92867 17.8133 8.414C17.4493 8.89 17.2673 9.53867 17.2673 10.36C17.2673 11.1813 17.4493 11.8347 17.8133 12.32C18.1866 12.796 18.6906 13.034 19.3253 13.034C19.96 13.034 20.4593 12.796 20.8233 12.32C21.1966 11.8347 21.3833 11.1813 21.3833 10.36ZM29.2771 8.26C29.1185 8.12933 28.8898 8.00333 28.5911 7.882C28.2925 7.76067 27.9658 7.7 27.6111 7.7C27.2378 7.7 26.9158 7.77 26.6451 7.91C26.3838 8.04067 26.1691 8.22733 26.0011 8.47C25.8331 8.70333 25.7118 8.98333 25.6371 9.31C25.5625 9.63667 25.5251 9.98667 25.5251 10.36C25.5251 11.2093 25.7351 11.8673 26.1551 12.334C26.5751 12.7913 27.1351 13.02 27.8351 13.02C28.1898 13.02 28.4838 13.006 28.7171 12.978C28.9598 12.9407 29.1465 12.9033 29.2771 12.866V8.26ZM29.2771 3.36L30.5791 3.136V13.79C30.2805 13.874 29.8978 13.958 29.4311 14.042C28.9645 14.126 28.4278 14.168 27.8211 14.168C27.2611 14.168 26.7571 14.0793 26.3091 13.902C25.8611 13.7247 25.4785 13.4727 25.1611 13.146C24.8438 12.8193 24.5965 12.4227 24.4191 11.956C24.2511 11.48 24.1671 10.948 24.1671 10.36C24.1671 9.8 24.2371 9.28667 24.3771 8.82C24.5265 8.35333 24.7411 7.952 25.0211 7.616C25.3011 7.28 25.6418 7.01867 26.0431 6.832C26.4538 6.64533 26.9205 6.552 27.4431 6.552C27.8631 6.552 28.2318 6.608 28.5491 6.72C28.8758 6.832 29.1185 6.93933 29.2771 7.042V3.36ZM32.4113 10.374C32.4113 9.73 32.5046 9.17 32.6913 8.694C32.8779 8.20867 33.1253 7.80733 33.4333 7.49C33.7413 7.17267 34.0959 6.93467 34.4973 6.776C34.8986 6.61733 35.3093 6.538 35.7293 6.538C36.7093 6.538 37.4606 6.846 37.9833 7.462C38.5059 8.06867 38.7673 8.99733 38.7673 10.248C38.7673 10.304 38.7673 10.3787 38.7673 10.472C38.7673 10.556 38.7626 10.6353 38.7533 10.71H33.7693C33.8253 11.466 34.0446 12.04 34.4273 12.432C34.8099 12.824 35.4073 13.02 36.2193 13.02C36.6766 13.02 37.0593 12.9827 37.3673 12.908C37.6846 12.824 37.9226 12.7447 38.0813 12.67L38.2633 13.762C38.1046 13.846 37.8246 13.9347 37.4233 14.028C37.0313 14.1213 36.5833 14.168 36.0793 14.168C35.4446 14.168 34.8939 14.0747 34.4273 13.888C33.9699 13.692 33.5919 13.426 33.2933 13.09C32.9946 12.754 32.7706 12.3573 32.6213 11.9C32.4813 11.4333 32.4113 10.9247 32.4113 10.374ZM37.4093 9.66C37.4186 9.072 37.2693 8.59133 36.9613 8.218C36.6626 7.83533 36.2473 7.644 35.7153 7.644C35.4166 7.644 35.1506 7.70467 34.9173 7.826C34.6933 7.938 34.5019 8.08733 34.3433 8.274C34.1846 8.46067 34.0586 8.67533 33.9653 8.918C33.8813 9.16067 33.8253 9.408 33.7973 9.66H37.4093ZM43.3256 6.566C43.4376 6.566 43.5636 6.57533 43.7036 6.594C43.8529 6.60333 43.9976 6.622 44.1376 6.65C44.2776 6.66867 44.4036 6.692 44.5156 6.72C44.6369 6.73867 44.7256 6.75733 44.7816 6.776L44.5576 7.91C44.4549 7.87267 44.2822 7.83067 44.0396 7.784C43.8062 7.728 43.5029 7.7 43.1296 7.7C42.8869 7.7 42.6442 7.728 42.4016 7.784C42.1682 7.83067 42.0142 7.86333 41.9396 7.882V14H40.6376V7.028C40.9456 6.916 41.3282 6.81333 41.7856 6.72C42.2429 6.61733 42.7562 6.566 43.3256 6.566ZM46.038 6.93C46.3366 6.85533 46.7333 6.776 47.228 6.692C47.7226 6.608 48.292 6.566 48.936 6.566C49.5146 6.566 49.9953 6.65 50.378 6.818C50.7606 6.97667 51.064 7.20533 51.288 7.504C51.5213 7.79333 51.6846 8.14333 51.778 8.554C51.8713 8.96467 51.918 9.41733 51.918 9.912V14H50.616V10.192C50.616 9.744 50.5833 9.36133 50.518 9.044C50.462 8.72667 50.364 8.47 50.224 8.274C50.084 8.078 49.8973 7.938 49.664 7.854C49.4306 7.76067 49.1413 7.714 48.796 7.714C48.656 7.714 48.5113 7.71867 48.362 7.728C48.2126 7.73733 48.068 7.75133 47.928 7.77C47.7973 7.77933 47.676 7.79333 47.564 7.812C47.4613 7.83067 47.3866 7.84467 47.34 7.854V14H46.038V6.93Z" fill="#C9B7AD"/>
<path d="M16.32 40C16.1 39.28 15.85 38.54 15.57 37.78C15.31 37.02 15.05 36.26 14.79 35.5H6.69C6.43 36.26 6.16 37.02 5.88 37.78C5.62 38.54 5.38 39.28 5.16 40H0.3C1.08 37.76 1.82 35.69 2.52 33.79C3.22 31.89 3.9 30.1 4.56 28.42C5.24 26.74 5.9 25.15 6.54 23.65C7.2 22.13 7.88 20.65 8.58 19.21H13.05C13.73 20.65 14.4 22.13 15.06 23.65C15.72 25.15 16.38 26.74 17.04 28.42C17.72 30.1 18.41 31.89 19.11 33.79C19.81 35.69 20.55 37.76 21.33 40H16.32ZM10.71 23.92C10.61 24.22 10.46 24.63 10.26 25.15C10.06 25.67 9.83 26.27 9.57 26.95C9.31 27.63 9.02 28.38 8.7 29.2C8.4 30.02 8.09 30.88 7.77 31.78H13.68C13.36 30.88 13.05 30.02 12.75 29.2C12.45 28.38 12.16 27.63 11.88 26.95C11.62 26.27 11.39 25.67 11.19 25.15C10.99 24.63 10.83 24.22 10.71 23.92ZM33.2311 28.18C32.8311 28.08 32.3611 27.98 31.8211 27.88C31.2811 27.76 30.7011 27.7 30.0811 27.7C29.8011 27.7 29.4611 27.73 29.0611 27.79C28.6811 27.83 28.3911 27.88 28.1911 27.94V40H23.7211V25.06C24.5211 24.78 25.4611 24.52 26.5411 24.28C27.6411 24.02 28.8611 23.89 30.2011 23.89C30.4411 23.89 30.7311 23.91 31.0711 23.95C31.4111 23.97 31.7511 24.01 32.0911 24.07C32.4311 24.11 32.7711 24.17 33.1111 24.25C33.4511 24.31 33.7411 24.39 33.9811 24.49L33.2311 28.18ZM35.3344 32.11C35.3344 30.97 35.5144 29.9 35.8744 28.9C36.2544 27.88 36.7944 27 37.4944 26.26C38.1944 25.5 39.0444 24.9 40.0444 24.46C41.0444 24.02 42.1844 23.8 43.4644 23.8C44.3044 23.8 45.0744 23.88 45.7744 24.04C46.4744 24.18 47.1544 24.39 47.8144 24.67L46.8844 28.24C46.4644 28.08 46.0044 27.94 45.5044 27.82C45.0044 27.7 44.4444 27.64 43.8244 27.64C42.5044 27.64 41.5144 28.05 40.8544 28.87C40.2144 29.69 39.8944 30.77 39.8944 32.11C39.8944 33.53 40.1944 34.63 40.7944 35.41C41.4144 36.19 42.4844 36.58 44.0044 36.58C44.5444 36.58 45.1244 36.53 45.7444 36.43C46.3644 36.33 46.9344 36.17 47.4544 35.95L48.0844 39.61C47.5644 39.83 46.9144 40.02 46.1344 40.18C45.3544 40.34 44.4944 40.42 43.5544 40.42C42.1144 40.42 40.8744 40.21 39.8344 39.79C38.7944 39.35 37.9344 38.76 37.2544 38.02C36.5944 37.28 36.1044 36.41 35.7844 35.41C35.4844 34.39 35.3344 33.29 35.3344 32.11ZM51.0844 40V17.44L55.5544 16.72V24.28C55.8544 24.18 56.2344 24.09 56.6944 24.01C57.1744 23.91 57.6344 23.86 58.0744 23.86C59.3544 23.86 60.4144 24.04 61.2544 24.4C62.1144 24.74 62.7944 25.23 63.2944 25.87C63.8144 26.51 64.1744 27.27 64.3744 28.15C64.5944 29.03 64.7044 30.01 64.7044 31.09V40H60.2344V31.63C60.2344 30.19 60.0444 29.17 59.6644 28.57C59.3044 27.97 58.6244 27.67 57.6244 27.67C57.2244 27.67 56.8444 27.71 56.4844 27.79C56.1444 27.85 55.8344 27.92 55.5544 28V40H51.0844ZM82.2916 24.22C81.3916 27.26 80.4516 30.11 79.4716 32.77C78.4916 35.43 77.4216 38.01 76.2616 40.51C75.8416 41.41 75.4216 42.17 75.0016 42.79C74.5816 43.43 74.1216 43.95 73.6216 44.35C73.1216 44.77 72.5516 45.07 71.9116 45.25C71.2916 45.45 70.5616 45.55 69.7216 45.55C69.0216 45.55 68.3716 45.48 67.7716 45.34C67.1916 45.22 66.7116 45.08 66.3316 44.92L67.1116 41.35C67.5716 41.51 67.9816 41.62 68.3416 41.68C68.7016 41.74 69.0816 41.77 69.4816 41.77C70.2816 41.77 70.8916 41.55 71.3116 41.11C71.7516 40.69 72.1216 40.1 72.4216 39.34C71.4016 37.34 70.3816 35.1 69.3616 32.62C68.3416 30.12 67.3816 27.32 66.4816 24.22H71.2216C71.4216 25 71.6516 25.85 71.9116 26.77C72.1916 27.67 72.4816 28.59 72.7816 29.53C73.0816 30.45 73.3816 31.35 73.6816 32.23C74.0016 33.11 74.3016 33.91 74.5816 34.63C74.8416 33.91 75.1116 33.11 75.3916 32.23C75.6716 31.35 75.9416 30.45 76.2016 29.53C76.4816 28.59 76.7416 27.67 76.9816 26.77C77.2416 25.85 77.4716 25 77.6716 24.22H82.2916Z" fill="#C9B7AD"/>
<path d="M104 43V30.0565L94 21V43H104Z" fill="#C18F76"/>
<path d="M115.951 42.6862V29.9273L106.295 21V42.6862H115.951Z" fill="#C9B7AD"/>
</svg>
