<svg width="145" height="34" viewBox="0 0 145 34" fill="none" xmlns="http://www.w3.org/2000/svg">
<path d="M36.3715 33.8112H15.2762C11.8095 33.8112 9 31.0298 9 27.5978V6.71345C9 3.28144 11.8095 0.5 15.2762 0.5H36.3715C39.8382 0.5 42.6477 3.28144 42.6477 6.71345V27.5978C42.6477 31.0298 39.8382 33.8112 36.3715 33.8112Z" fill="#C78A6C"/>
<path d="M31.8854 17.4621C32.4854 18.207 32.7902 19.0744 32.7902 20.055C32.7902 21.4975 32.3045 22.629 31.333 23.4304C30.3616 24.2318 28.9711 24.6467 27.1616 24.6467H19.2568V7.81665H26.9711C28.7045 7.81665 30.0378 8.1938 30.9807 8.93866C31.9235 9.68351 32.3997 10.7489 32.3997 12.1255C32.3997 13.1438 32.1235 13.983 31.5807 14.6618C31.0378 15.3407 30.3235 15.7744 29.4378 15.9818C30.4759 16.227 31.2854 16.7172 31.8854 17.4621ZM23.3616 14.6995H26.0568C27.4854 14.6995 28.1997 14.0961 28.1997 12.8892C28.1997 11.6824 27.4664 11.0789 26.0092 11.0789H23.3616V14.6995ZM28.5806 19.4893C28.5806 18.8858 28.3807 18.4144 27.9807 18.075C27.5807 17.7355 27.0092 17.5658 26.2759 17.5658H23.3711V21.3467H26.3045C27.8188 21.3373 28.5806 20.7244 28.5806 19.4893Z" fill="white"/>
<path d="M62.1428 24.6467L58.4666 18.2918H57.5332V24.6467H53.4189V7.81665H60.438C61.7809 7.81665 62.9237 8.04294 63.8476 8.50494C64.7809 8.96694 65.4761 9.59865 65.9428 10.4001C66.4094 11.2015 66.638 12.1161 66.638 13.1532C66.638 14.379 66.2952 15.4161 65.619 16.2741C64.9333 17.1321 63.9523 17.7167 62.6475 18.0372L66.6856 24.6561H62.1428V24.6467ZM57.5332 15.5104H60.0761C60.8951 15.5104 61.4952 15.3312 61.8761 14.973C62.2571 14.6147 62.4571 14.0867 62.4571 13.389C62.4571 12.7195 62.2571 12.2009 61.8666 11.8144C61.4761 11.4372 60.8761 11.2392 60.0761 11.2392H57.5332V15.5104Z" fill="#C9B7AD"/>
<path d="M85.2475 21.5832H78.8761L77.8189 24.6569H73.4951L79.7237 7.94946H84.4571L90.6856 24.6569H86.3142L85.2475 21.5832ZM84.1904 18.4812L82.0761 12.296L79.9332 18.4812H84.1904Z" fill="#C9B7AD"/>
<path d="M113.381 24.6467H109.267L102.391 14.3129V24.6467H98.2764V7.81665H102.391L109.267 18.2447V7.81665H113.381V24.6467Z" fill="#C9B7AD"/>
<path d="M136.448 20.5927C135.733 21.8656 134.705 22.865 133.371 23.5816C132.029 24.2982 130.457 24.6565 128.648 24.6565H122.229V7.82642H128.648C130.476 7.82642 132.057 8.17527 133.381 8.87299C134.714 9.57071 135.733 10.5513 136.448 11.8241C137.162 13.097 137.514 14.549 137.514 16.2084C137.514 17.849 137.152 19.3104 136.448 20.5927ZM132.019 19.7441C132.905 18.905 133.352 17.717 133.352 16.199C133.352 14.6716 132.905 13.493 132.019 12.6539C131.133 11.8147 129.886 11.3904 128.276 11.3904H126.333V21.0076H128.276C129.886 21.0076 131.133 20.5927 132.019 19.7441Z" fill="#C9B7AD"/>
</svg>
