<svg width="115" height="37" viewBox="0 0 115 37" fill="none" xmlns="http://www.w3.org/2000/svg">
<path d="M9.5 22.7435V0H23.0302V22.7324H9.5V22.7435ZM21.3909 17.4523L21.739 14.94L20.4813 14.8177L20.0996 16.7519C19.3136 17.141 18.348 17.33 17.1914 17.33C15.6195 17.33 14.3731 16.8409 13.4636 15.8515C12.5429 14.8622 12.0938 13.5616 12.0938 11.9387C12.0938 10.3602 12.5429 9.05962 13.4299 8.03693C14.317 7.01425 15.4848 6.50291 16.9332 6.50291C17.6743 6.50291 18.3031 6.59184 18.8083 6.75858C19.3136 6.92532 19.774 7.14765 20.2119 7.43666L20.5824 9.34863L21.8625 9.22636L21.4919 6.71412C20.953 6.25836 20.3129 5.89153 19.5719 5.60251C18.8308 5.32461 17.9101 5.1801 16.8209 5.1801C15.5297 5.1801 14.418 5.49135 13.4861 6.12497C12.5541 6.75858 11.8243 7.59229 11.3078 8.62609C10.7913 9.671 10.533 10.7937 10.533 11.9943C10.533 13.8951 11.1281 15.4847 12.3183 16.7519C13.5085 18.0192 15.058 18.6528 16.9781 18.6528C18.8645 18.6528 20.3354 18.2526 21.3909 17.4523Z" fill="#C9B7AD"/>
<path d="M27.623 22.7435V0H33.4393V22.7324H27.623V22.7435ZM28.2406 18.4527H32.833V17.3078H31.2498V4.61318H28.2181V5.75813H29.8238V17.3078H28.2406V18.4527Z" fill="#C9B7AD"/>
<path d="M38.0312 22.7435V0H48.2491V22.7324H38.0312V22.7435ZM39.8839 10.1823L39.5583 12.2499L40.7373 12.3944L41.0854 10.8493C41.5906 10.6047 42.1633 10.4825 42.837 10.4825C43.6454 10.4825 44.1957 10.6826 44.4764 11.0827C44.7571 11.4829 44.8918 12.0054 44.8918 12.6501V13.4505C44.6448 13.4282 44.3865 13.406 44.1058 13.3949C43.8251 13.3838 43.5556 13.3727 43.2862 13.3727C42.2756 13.3727 41.3099 13.5505 40.4117 13.9062C39.5134 14.2619 39.0643 15.0067 39.0643 16.1294C39.0643 17.0854 39.3674 17.7413 39.985 18.097C40.6026 18.4638 41.2089 18.6417 41.804 18.6417C42.5338 18.6417 43.1626 18.4527 43.6791 18.0748C44.1956 17.6968 44.5999 17.2744 44.8918 16.7853V16.8298C44.9143 18.0414 45.4645 18.6417 46.5424 18.6417C46.9578 18.6417 47.3508 18.5416 47.7213 18.3416L47.6989 17.4189C47.5192 17.4967 47.3171 17.5412 47.0926 17.5412C46.576 17.5412 46.3178 17.2188 46.3178 16.5741V12.3166C46.3178 10.3157 45.2399 9.31528 43.084 9.31528C42.4889 9.31528 41.9275 9.38198 41.3998 9.51537C40.8608 9.65988 40.3555 9.8822 39.8839 10.1823ZM44.8806 15.0956C44.8244 15.8293 44.5213 16.4185 43.9711 16.8409C43.4209 17.2744 42.837 17.4856 42.2082 17.4856C41.8152 17.4856 41.4335 17.3744 41.0742 17.1632C40.7036 16.952 40.524 16.5519 40.524 15.9738C40.524 15.2735 40.8047 14.8289 41.3436 14.6177C41.8938 14.4065 42.5001 14.3064 43.1851 14.3064C43.4882 14.3064 43.7802 14.3175 44.0609 14.3509C44.3416 14.3731 44.6223 14.3953 44.8693 14.4065V15.0956H44.8806Z" fill="#C9B7AD"/>
<path d="M52.8525 22.7435V0H62.1384V22.7324H52.8525V22.7435ZM61.1615 15.8627C61.1615 15.1512 60.9706 14.6288 60.5889 14.2842C60.2071 13.9396 59.7467 13.7061 59.1853 13.5727C58.6239 13.4394 58.0737 13.3282 57.5235 13.2393C56.9734 13.1503 56.5018 13.0058 56.12 12.8169C55.7382 12.6279 55.5473 12.2944 55.5473 11.8164C55.5473 11.3606 55.727 11.0272 56.0975 10.8048C56.4681 10.5825 56.9284 10.4825 57.5011 10.4825C58.1635 10.4825 58.7811 10.627 59.3538 10.9271L59.5784 12.3722L60.7573 12.2277L60.5327 10.1379C60.151 9.90444 59.6906 9.71546 59.1404 9.55984C58.5902 9.40421 58.0064 9.31528 57.3776 9.31528C56.5467 9.31528 55.7832 9.51537 55.0758 9.90444C54.3684 10.2935 54.0203 10.9605 54.0203 11.9164C54.0203 12.6168 54.2112 13.1281 54.5929 13.4505C54.9747 13.784 55.4463 14.0063 56.0189 14.1397C56.5916 14.2731 57.153 14.3842 57.7144 14.4843C58.2758 14.5732 58.7474 14.7288 59.1292 14.9289C59.511 15.129 59.7019 15.4736 59.7019 15.9738C59.7019 16.4852 59.4548 16.8631 58.9607 17.1077C58.4667 17.3522 57.9053 17.4745 57.2653 17.4745C56.5467 17.4745 55.873 17.33 55.2554 17.0299L55.3116 15.8404L54.1775 15.7182L53.8968 17.7524C54.2898 18.0081 54.8063 18.2193 55.4351 18.386C56.0638 18.5528 56.6926 18.6417 57.3326 18.6417C58.4218 18.6417 59.3313 18.3971 60.0612 17.8969C60.791 17.4189 61.1615 16.7297 61.1615 15.8627Z" fill="#C9B7AD"/>
<path d="M66.7314 22.7435V0H76.0173V22.7324H66.7314V22.7435ZM75.0404 15.8627C75.0404 15.1512 74.8495 14.6288 74.4677 14.2842C74.086 13.9396 73.6256 13.7061 73.0642 13.5727C72.5028 13.4394 71.9526 13.3282 71.4024 13.2393C70.8522 13.1503 70.3806 13.0058 69.9989 12.8169C69.6171 12.6279 69.4262 12.2944 69.4262 11.8164C69.4262 11.3606 69.6059 11.0272 69.9764 10.8048C70.3469 10.5825 70.8073 10.4825 71.3799 10.4825C72.0424 10.4825 72.66 10.627 73.2326 10.9271L73.4572 12.3722L74.6362 12.2277L74.4116 10.1379C74.0298 9.90444 73.5695 9.71546 73.0193 9.55984C72.4691 9.40421 71.8852 9.31528 71.2564 9.31528C70.4255 9.31528 69.662 9.51537 68.9546 9.90444C68.2473 10.2935 67.8992 10.9605 67.8992 11.9164C67.8992 12.6168 68.0901 13.1281 68.4718 13.4505C68.8536 13.784 69.3252 14.0063 69.8979 14.1397C70.4705 14.2731 71.0319 14.3842 71.5933 14.4843C72.1547 14.5732 72.6263 14.7288 73.0081 14.9289C73.3898 15.129 73.5807 15.4736 73.5807 15.9738C73.5807 16.4852 73.3337 16.8631 72.8397 17.1077C72.3456 17.3522 71.7842 17.4745 71.1442 17.4745C70.4256 17.4745 69.7518 17.33 69.1343 17.0299L69.1905 15.8404L68.0564 15.7182L67.7757 17.7524C68.1687 18.0081 68.6852 18.2193 69.314 18.386C69.9427 18.5528 70.5715 18.6417 71.2116 18.6417C72.3007 18.6417 73.2102 18.3971 73.94 17.8969C74.6699 17.4189 75.0404 16.7297 75.0404 15.8627Z" fill="#C9B7AD"/>
<path d="M80.6094 22.7435V0H86.7289V22.7324H80.6094V22.7435ZM81.5076 18.4527H86.1001V17.3078H84.5168V9.50426H81.474V10.6492H83.102V17.3078H81.5189V18.4527H81.5076ZM82.9449 5.35796V7.19211H84.4944V5.35796H82.9449Z" fill="#C9B7AD"/>
<path d="M91.3213 22.7435V0H101.101V22.7324H91.3213V22.7435ZM100.225 15.4403L99.0015 15.1735C98.732 16.6853 97.9124 17.4411 96.565 17.4411C95.6667 17.4411 94.9818 17.141 94.5102 16.5407C94.0386 15.9405 93.8028 15.0957 93.8028 14.0285C93.8028 13.0614 94.0161 12.2388 94.4316 11.5496C94.847 10.8604 95.5432 10.5269 96.5088 10.5269C97.2499 10.5269 97.9011 10.6937 98.4401 11.0272L98.7882 12.5389L99.9671 12.3944L99.6191 10.2379C99.1587 9.89332 98.6759 9.64877 98.1706 9.51537C97.6654 9.38198 97.1151 9.31528 96.52 9.31528C95.1165 9.31528 94.0498 9.80439 93.3536 10.7826C92.6462 11.7608 92.2982 12.8724 92.2982 14.1063C92.2982 15.5403 92.6687 16.663 93.421 17.4523C94.1621 18.2526 95.1614 18.6528 96.4078 18.6528C97.6541 18.6528 98.5749 18.3082 99.1587 17.6301C99.7426 16.9409 100.102 16.2184 100.225 15.4403Z" fill="#C9B7AD"/>
<path d="M15.3507 35.1602C15.0924 35.627 14.7106 35.9939 14.2166 36.2496C13.7113 36.5052 13.1162 36.6386 12.42 36.6386H10.4102V30.3691H12.42C13.1162 30.3691 13.7225 30.4914 14.2166 30.7471C14.7106 31.0028 15.0924 31.3585 15.3507 31.8365C15.6089 32.3145 15.7324 32.8591 15.7324 33.5039C15.7324 34.1375 15.6089 34.6933 15.3507 35.1602ZM14.239 35.2825C14.6769 34.86 14.8903 34.2709 14.8903 33.5039C14.8903 32.7369 14.6769 32.1477 14.239 31.7253C13.8011 31.3029 13.1723 31.0917 12.3414 31.0917H11.2074V35.9161H12.3414C13.1723 35.9161 13.8011 35.7049 14.239 35.2825Z" fill="#C9B7AD"/>
<path d="M19.8978 31.025V33.1704H22.3007V33.7929H19.8978V35.9828H22.5702V36.6386H19.0781V30.3691H22.5702V31.025H19.8978Z" fill="#C9B7AD"/>
<path d="M29.6672 35.8385C29.5213 36.0942 29.3079 36.3054 29.016 36.4611C28.724 36.6167 28.3647 36.7056 27.9268 36.7056C27.5114 36.7056 27.1296 36.6278 26.804 36.4833C26.4783 36.3277 26.2201 36.1276 26.018 35.8608C25.8271 35.594 25.7148 35.2939 25.6811 34.9604H26.5569C26.5794 35.1382 26.6355 35.3161 26.7366 35.4828C26.8377 35.6496 26.9948 35.7941 27.1857 35.9052C27.3766 36.0164 27.6124 36.072 27.8931 36.072C28.2524 36.072 28.5332 35.9831 28.724 35.783C28.9149 35.5829 29.016 35.3494 29.016 35.0493C29.016 34.7936 28.9486 34.5824 28.8139 34.4268C28.6791 34.2712 28.5107 34.1378 28.3198 34.0489C28.1289 33.9599 27.8482 33.8599 27.5114 33.7487C27.1071 33.6153 26.7928 33.4931 26.5457 33.3819C26.2987 33.2707 26.0966 33.0929 25.9282 32.8594C25.7597 32.626 25.6699 32.3259 25.6699 31.9479C25.6699 31.6255 25.7485 31.3365 25.9057 31.0809C26.0629 30.8363 26.2875 30.6362 26.5906 30.5028C26.8826 30.3694 27.2419 30.3027 27.6349 30.3027C28.2524 30.3027 28.7577 30.4472 29.117 30.7474C29.4875 31.0475 29.6897 31.4255 29.757 31.8923H28.8812C28.8363 31.6478 28.7016 31.4255 28.4995 31.2365C28.2861 31.0475 28.0054 30.9475 27.6461 30.9475C27.3205 30.9475 27.051 31.0364 26.8601 31.2031C26.658 31.3699 26.5682 31.6144 26.5682 31.9146C26.5682 32.1591 26.6356 32.3592 26.7591 32.5037C26.8938 32.6593 27.051 32.7705 27.2419 32.8594C27.4328 32.9484 27.7022 33.0373 28.0279 33.1485C28.4321 33.2818 28.7577 33.4041 29.016 33.5264C29.263 33.6487 29.4763 33.8265 29.6447 34.06C29.8132 34.2934 29.903 34.6158 29.903 35.016C29.8805 35.305 29.8132 35.5829 29.6672 35.8385Z" fill="#C9B7AD"/>
<path d="M34.0462 30.3691V36.6386H33.2266V30.3691H34.0462Z" fill="#C9B7AD"/>
<path d="M42.3326 30.8472C42.8379 31.214 43.1747 31.7031 43.3431 32.3256H42.4786C42.3326 31.9477 42.0743 31.6364 41.7263 31.4141C41.3782 31.1807 40.9627 31.0695 40.4799 31.0695C40.0532 31.0695 39.6602 31.1695 39.3234 31.3696C38.9865 31.5697 38.7171 31.8476 38.515 32.2145C38.3241 32.5813 38.223 33.0148 38.223 33.515C38.223 34.0264 38.3241 34.471 38.515 34.8379C38.7058 35.2047 38.9865 35.4937 39.3346 35.6938C39.6827 35.8939 40.0869 35.9939 40.5473 35.9939C40.9403 35.9939 41.2883 35.905 41.614 35.7494C41.9396 35.5826 42.1978 35.3381 42.4112 35.0268C42.6245 34.7156 42.7368 34.3376 42.7817 33.9152H40.289V33.315H43.4666V34.0597C43.4105 34.56 43.2533 35.0046 42.9951 35.4159C42.7368 35.8272 42.3887 36.1384 41.9508 36.3719C41.5129 36.6053 41.0189 36.7276 40.4574 36.7276C39.8511 36.7276 39.3121 36.5942 38.8406 36.3274C38.369 36.0606 38.0097 35.6827 37.7514 35.1936C37.4931 34.7156 37.3584 34.1598 37.3584 33.5373C37.3584 32.9148 37.4931 32.359 37.7514 31.881C38.0097 31.403 38.3802 31.0139 38.8406 30.7471C39.3009 30.4804 39.8399 30.3358 40.4462 30.3358C41.2097 30.3136 41.8273 30.4915 42.3326 30.8472Z" fill="#C9B7AD"/>
<path d="M51.7535 36.6386H50.9338L47.6439 31.6808V36.6386H46.8242V30.3691H47.6439L50.9338 35.3269V30.3691H51.7535V36.6386Z" fill="#C9B7AD"/>
<path d="M63.5647 35.8385C63.4187 36.0942 63.2054 36.3054 62.9134 36.4611C62.6215 36.6167 62.2622 36.7056 61.8243 36.7056C61.4088 36.7056 61.0271 36.6278 60.7015 36.4833C60.3758 36.3277 60.1176 36.1276 59.9155 35.8608C59.7246 35.594 59.6123 35.2939 59.5786 34.9604H60.4544C60.4769 35.1382 60.533 35.3161 60.6341 35.4828C60.7351 35.6496 60.8923 35.7941 61.0832 35.9052C61.2741 36.0164 61.5099 36.072 61.7906 36.072C62.1499 36.072 62.4306 35.9831 62.6215 35.783C62.8124 35.5829 62.9134 35.3494 62.9134 35.0493C62.9134 34.7936 62.8461 34.5824 62.7113 34.4268C62.5766 34.2712 62.4081 34.1378 62.2173 34.0489C62.0264 33.9599 61.7457 33.8599 61.4089 33.7487C61.0046 33.6153 60.6902 33.4931 60.4432 33.3819C60.1961 33.2707 59.994 33.0929 59.8256 32.8594C59.6572 32.626 59.5674 32.3259 59.5674 31.9479C59.5674 31.6255 59.6459 31.3365 59.8031 31.0809C59.9603 30.8363 60.185 30.6362 60.4881 30.5028C60.7801 30.3694 61.1394 30.3027 61.5323 30.3027C62.1499 30.3027 62.6552 30.4472 63.0145 30.7474C63.385 31.0475 63.5872 31.4255 63.6545 31.8923H62.7787C62.7338 31.6478 62.599 31.4255 62.3969 31.2365C62.1835 31.0475 61.9029 30.9475 61.5436 30.9475C61.218 30.9475 60.9485 31.0364 60.7576 31.2031C60.5555 31.3699 60.4656 31.6144 60.4656 31.9146C60.4656 32.1591 60.533 32.3592 60.6565 32.5037C60.7912 32.6593 60.9484 32.7705 61.1393 32.8594C61.3302 32.9484 61.5997 33.0373 61.9253 33.1485C62.3295 33.2818 62.6552 33.4041 62.9134 33.5264C63.1604 33.6487 63.3738 33.8265 63.5422 34.06C63.7106 34.2934 63.8004 34.6158 63.8004 35.016C63.778 35.305 63.7106 35.5829 63.5647 35.8385Z" fill="#C9B7AD"/>
<path d="M71.009 30.3691V31.025H69.2237V36.6386H68.3928V31.025H66.6074V30.3691H71.009Z" fill="#C9B7AD"/>
<path d="M74.8284 30.3691V34.1264C74.8284 34.7378 74.9632 35.1935 75.2439 35.4937C75.5246 35.7827 75.8951 35.9383 76.3892 35.9383C76.872 35.9383 77.2425 35.7938 77.512 35.4937C77.7815 35.1935 77.9162 34.7489 77.9162 34.1375V30.3803H78.7359V34.1375C78.7359 34.9934 78.5226 35.6382 78.0959 36.0606C77.6692 36.4941 77.0966 36.7053 76.3779 36.7053C75.6706 36.7053 75.098 36.4941 74.6713 36.0606C74.2446 35.6271 74.0312 34.9934 74.0312 34.1375V30.3803H74.8284V30.3691Z" fill="#C9B7AD"/>
<path d="M87.1895 35.1602C86.9312 35.627 86.5494 35.9939 86.0554 36.2496C85.5501 36.5052 84.955 36.6386 84.2589 36.6386H82.249V30.3691H84.2589C84.955 30.3691 85.5613 30.4914 86.0554 30.7471C86.5494 31.0028 86.9312 31.3585 87.1895 31.8365C87.4477 32.3145 87.5713 32.8591 87.5713 33.5039C87.5713 34.1375 87.4477 34.6933 87.1895 35.1602ZM86.0891 35.2825C86.527 34.86 86.7404 34.2709 86.7404 33.5039C86.7404 32.7369 86.527 32.1477 86.0891 31.7253C85.6512 31.3029 85.0224 31.0917 84.1915 31.0917H83.0574V35.9161H84.1915C85.0112 35.9161 85.6512 35.7049 86.0891 35.2825Z" fill="#C9B7AD"/>
<path d="M91.7484 30.3691V36.6386H90.9287V30.3691H91.7484Z" fill="#C9B7AD"/>
<path d="M99.7877 30.7023C100.259 30.9802 100.63 31.3582 100.899 31.8473C101.169 32.3364 101.304 32.8922 101.304 33.5036C101.304 34.1149 101.169 34.6708 100.899 35.1599C100.63 35.649 100.259 36.0269 99.7877 36.3048C99.3161 36.5827 98.7883 36.7161 98.2045 36.7161C97.6206 36.7161 97.0816 36.5827 96.6101 36.3048C96.1385 36.0269 95.7567 35.649 95.4872 35.1599C95.2177 34.6708 95.083 34.1149 95.083 33.5036C95.083 32.8922 95.2177 32.3364 95.4872 31.8473C95.7567 31.3582 96.1272 30.9802 96.6101 30.7023C97.0929 30.4244 97.6206 30.291 98.2045 30.291C98.7883 30.291 99.3161 30.4244 99.7877 30.7023ZM97.0255 31.347C96.6774 31.5471 96.408 31.825 96.2171 32.203C96.0262 32.5698 95.9251 33.0033 95.9251 33.5036C95.9251 33.9927 96.0262 34.4262 96.2171 34.8041C96.408 35.1821 96.6774 35.46 97.0255 35.6601C97.3736 35.8602 97.7553 35.9602 98.1932 35.9602C98.6199 35.9602 99.0129 35.8602 99.361 35.6601C99.7091 35.46 99.9785 35.171 100.169 34.8041C100.36 34.4373 100.461 34.0038 100.461 33.5147C100.461 33.0145 100.36 32.5809 100.169 32.2141C99.9785 31.8473 99.7091 31.5582 99.361 31.3582C99.0129 31.1581 98.6311 31.058 98.1932 31.058C97.7665 31.0469 97.3736 31.147 97.0255 31.347Z" fill="#C9B7AD"/>
</svg>
