<svg width="145" height="48" viewBox="0 0 145 48" fill="none" xmlns="http://www.w3.org/2000/svg">
<path d="M23.558 12.656C23.4647 12.432 23.3387 12.1473 23.18 11.802C23.0307 11.4567 22.8673 11.0833 22.69 10.682C22.5127 10.2807 22.3213 9.87 22.116 9.45C21.92 9.02067 21.7333 8.61933 21.556 8.246C21.3787 7.86333 21.2107 7.52267 21.052 7.224C20.9027 6.92533 20.7813 6.69667 20.688 6.538C20.5853 7.63933 20.5013 8.834 20.436 10.122C20.3707 11.4007 20.3147 12.6933 20.268 14H18.938C18.9753 13.16 19.0173 12.3153 19.064 11.466C19.1107 10.6073 19.162 9.76733 19.218 8.946C19.2833 8.11533 19.3487 7.308 19.414 6.524C19.4887 5.74 19.568 4.998 19.652 4.298H20.842C21.094 4.70867 21.3647 5.194 21.654 5.754C21.9433 6.314 22.2327 6.902 22.522 7.518C22.8113 8.12467 23.0913 8.736 23.362 9.352C23.6327 9.95867 23.88 10.514 24.104 11.018C24.328 10.514 24.5753 9.95867 24.846 9.352C25.1167 8.736 25.3967 8.12467 25.686 7.518C25.9753 6.902 26.2647 6.314 26.554 5.754C26.8433 5.194 27.114 4.70867 27.366 4.298H28.556C28.8733 7.42467 29.1113 10.6587 29.27 14H27.94C27.8933 12.6933 27.8373 11.4007 27.772 10.122C27.7067 8.834 27.6227 7.63933 27.52 6.538C27.4267 6.69667 27.3007 6.92533 27.142 7.224C26.9927 7.52267 26.8293 7.86333 26.652 8.246C26.4747 8.61933 26.2833 9.02067 26.078 9.45C25.882 9.87 25.6953 10.2807 25.518 10.682C25.3407 11.0833 25.1727 11.4567 25.014 11.802C24.8647 12.1473 24.7433 12.432 24.65 12.656H23.558ZM37.7413 10.36C37.7413 10.9387 37.6573 11.4613 37.4893 11.928C37.3213 12.3947 37.0833 12.796 36.7753 13.132C36.4766 13.468 36.1173 13.7293 35.6973 13.916C35.2773 14.0933 34.82 14.182 34.3253 14.182C33.8306 14.182 33.3733 14.0933 32.9533 13.916C32.5333 13.7293 32.1693 13.468 31.8613 13.132C31.5626 12.796 31.3293 12.3947 31.1613 11.928C30.9933 11.4613 30.9093 10.9387 30.9093 10.36C30.9093 9.79067 30.9933 9.27267 31.1613 8.806C31.3293 8.33 31.5626 7.924 31.8613 7.588C32.1693 7.252 32.5333 6.99533 32.9533 6.818C33.3733 6.63133 33.8306 6.538 34.3253 6.538C34.82 6.538 35.2773 6.63133 35.6973 6.818C36.1173 6.99533 36.4766 7.252 36.7753 7.588C37.0833 7.924 37.3213 8.33 37.4893 8.806C37.6573 9.27267 37.7413 9.79067 37.7413 10.36ZM36.3833 10.36C36.3833 9.53867 36.1966 8.89 35.8233 8.414C35.4593 7.92867 34.96 7.686 34.3253 7.686C33.6906 7.686 33.1866 7.92867 32.8133 8.414C32.4493 8.89 32.2673 9.53867 32.2673 10.36C32.2673 11.1813 32.4493 11.8347 32.8133 12.32C33.1866 12.796 33.6906 13.034 34.3253 13.034C34.96 13.034 35.4593 12.796 35.8233 12.32C36.1966 11.8347 36.3833 11.1813 36.3833 10.36ZM44.2771 8.26C44.1185 8.12933 43.8898 8.00333 43.5911 7.882C43.2925 7.76067 42.9658 7.7 42.6111 7.7C42.2378 7.7 41.9158 7.77 41.6451 7.91C41.3838 8.04067 41.1691 8.22733 41.0011 8.47C40.8331 8.70333 40.7118 8.98333 40.6371 9.31C40.5625 9.63667 40.5251 9.98667 40.5251 10.36C40.5251 11.2093 40.7351 11.8673 41.1551 12.334C41.5751 12.7913 42.1351 13.02 42.8351 13.02C43.1898 13.02 43.4838 13.006 43.7171 12.978C43.9598 12.9407 44.1465 12.9033 44.2771 12.866V8.26ZM44.2771 3.36L45.5791 3.136V13.79C45.2805 13.874 44.8978 13.958 44.4311 14.042C43.9645 14.126 43.4278 14.168 42.8211 14.168C42.2611 14.168 41.7571 14.0793 41.3091 13.902C40.8611 13.7247 40.4785 13.4727 40.1611 13.146C39.8438 12.8193 39.5965 12.4227 39.4191 11.956C39.2511 11.48 39.1671 10.948 39.1671 10.36C39.1671 9.8 39.2371 9.28667 39.3771 8.82C39.5265 8.35333 39.7411 7.952 40.0211 7.616C40.3011 7.28 40.6418 7.01867 41.0431 6.832C41.4538 6.64533 41.9205 6.552 42.4431 6.552C42.8631 6.552 43.2318 6.608 43.5491 6.72C43.8758 6.832 44.1185 6.93933 44.2771 7.042V3.36ZM47.4113 10.374C47.4113 9.73 47.5046 9.17 47.6913 8.694C47.8779 8.20867 48.1253 7.80733 48.4333 7.49C48.7413 7.17267 49.0959 6.93467 49.4973 6.776C49.8986 6.61733 50.3093 6.538 50.7293 6.538C51.7093 6.538 52.4606 6.846 52.9833 7.462C53.5059 8.06867 53.7673 8.99733 53.7673 10.248C53.7673 10.304 53.7673 10.3787 53.7673 10.472C53.7673 10.556 53.7626 10.6353 53.7533 10.71H48.7693C48.8253 11.466 49.0446 12.04 49.4273 12.432C49.8099 12.824 50.4073 13.02 51.2193 13.02C51.6766 13.02 52.0593 12.9827 52.3673 12.908C52.6846 12.824 52.9226 12.7447 53.0813 12.67L53.2633 13.762C53.1046 13.846 52.8246 13.9347 52.4233 14.028C52.0313 14.1213 51.5833 14.168 51.0793 14.168C50.4446 14.168 49.8939 14.0747 49.4273 13.888C48.9699 13.692 48.5919 13.426 48.2933 13.09C47.9946 12.754 47.7706 12.3573 47.6213 11.9C47.4813 11.4333 47.4113 10.9247 47.4113 10.374ZM52.4093 9.66C52.4186 9.072 52.2693 8.59133 51.9613 8.218C51.6626 7.83533 51.2473 7.644 50.7153 7.644C50.4166 7.644 50.1506 7.70467 49.9173 7.826C49.6933 7.938 49.5019 8.08733 49.3433 8.274C49.1846 8.46067 49.0586 8.67533 48.9653 8.918C48.8813 9.16067 48.8253 9.408 48.7973 9.66H52.4093ZM58.3256 6.566C58.4376 6.566 58.5636 6.57533 58.7036 6.594C58.8529 6.60333 58.9976 6.622 59.1376 6.65C59.2776 6.66867 59.4036 6.692 59.5156 6.72C59.6369 6.73867 59.7256 6.75733 59.7816 6.776L59.5576 7.91C59.4549 7.87267 59.2822 7.83067 59.0396 7.784C58.8062 7.728 58.5029 7.7 58.1296 7.7C57.8869 7.7 57.6442 7.728 57.4016 7.784C57.1682 7.83067 57.0142 7.86333 56.9396 7.882V14H55.6376V7.028C55.9456 6.916 56.3282 6.81333 56.7856 6.72C57.2429 6.61733 57.7562 6.566 58.3256 6.566ZM61.038 6.93C61.3366 6.85533 61.7333 6.776 62.228 6.692C62.7226 6.608 63.292 6.566 63.936 6.566C64.5146 6.566 64.9953 6.65 65.378 6.818C65.7606 6.97667 66.064 7.20533 66.288 7.504C66.5213 7.79333 66.6846 8.14333 66.778 8.554C66.8713 8.96467 66.918 9.41733 66.918 9.912V14H65.616V10.192C65.616 9.744 65.5833 9.36133 65.518 9.044C65.462 8.72667 65.364 8.47 65.224 8.274C65.084 8.078 64.8973 7.938 64.664 7.854C64.4306 7.76067 64.1413 7.714 63.796 7.714C63.656 7.714 63.5113 7.71867 63.362 7.728C63.2126 7.73733 63.068 7.75133 62.928 7.77C62.7973 7.77933 62.676 7.79333 62.564 7.812C62.4613 7.83067 62.3866 7.84467 62.34 7.854V14H61.038V6.93Z" fill="#C9B7AD"/>
<path d="M31.32 40C31.1 39.28 30.85 38.54 30.57 37.78C30.31 37.02 30.05 36.26 29.79 35.5H21.69C21.43 36.26 21.16 37.02 20.88 37.78C20.62 38.54 20.38 39.28 20.16 40H15.3C16.08 37.76 16.82 35.69 17.52 33.79C18.22 31.89 18.9 30.1 19.56 28.42C20.24 26.74 20.9 25.15 21.54 23.65C22.2 22.13 22.88 20.65 23.58 19.21H28.05C28.73 20.65 29.4 22.13 30.06 23.65C30.72 25.15 31.38 26.74 32.04 28.42C32.72 30.1 33.41 31.89 34.11 33.79C34.81 35.69 35.55 37.76 36.33 40H31.32ZM25.71 23.92C25.61 24.22 25.46 24.63 25.26 25.15C25.06 25.67 24.83 26.27 24.57 26.95C24.31 27.63 24.02 28.38 23.7 29.2C23.4 30.02 23.09 30.88 22.77 31.78H28.68C28.36 30.88 28.05 30.02 27.75 29.2C27.45 28.38 27.16 27.63 26.88 26.95C26.62 26.27 26.39 25.67 26.19 25.15C25.99 24.63 25.83 24.22 25.71 23.92ZM48.2311 28.18C47.8311 28.08 47.3611 27.98 46.8211 27.88C46.2811 27.76 45.7011 27.7 45.0811 27.7C44.8011 27.7 44.4611 27.73 44.0611 27.79C43.6811 27.83 43.3911 27.88 43.1911 27.94V40H38.7211V25.06C39.5211 24.78 40.4611 24.52 41.5411 24.28C42.6411 24.02 43.8611 23.89 45.2011 23.89C45.4411 23.89 45.7311 23.91 46.0711 23.95C46.4111 23.97 46.7511 24.01 47.0911 24.07C47.4311 24.11 47.7711 24.17 48.1111 24.25C48.4511 24.31 48.7411 24.39 48.9811 24.49L48.2311 28.18ZM50.3344 32.11C50.3344 30.97 50.5144 29.9 50.8744 28.9C51.2544 27.88 51.7944 27 52.4944 26.26C53.1944 25.5 54.0444 24.9 55.0444 24.46C56.0444 24.02 57.1844 23.8 58.4644 23.8C59.3044 23.8 60.0744 23.88 60.7744 24.04C61.4744 24.18 62.1544 24.39 62.8144 24.67L61.8844 28.24C61.4644 28.08 61.0044 27.94 60.5044 27.82C60.0044 27.7 59.4444 27.64 58.8244 27.64C57.5044 27.64 56.5144 28.05 55.8544 28.87C55.2144 29.69 54.8944 30.77 54.8944 32.11C54.8944 33.53 55.1944 34.63 55.7944 35.41C56.4144 36.19 57.4844 36.58 59.0044 36.58C59.5444 36.58 60.1244 36.53 60.7444 36.43C61.3644 36.33 61.9344 36.17 62.4544 35.95L63.0844 39.61C62.5644 39.83 61.9144 40.02 61.1344 40.18C60.3544 40.34 59.4944 40.42 58.5544 40.42C57.1144 40.42 55.8744 40.21 54.8344 39.79C53.7944 39.35 52.9344 38.76 52.2544 38.02C51.5944 37.28 51.1044 36.41 50.7844 35.41C50.4844 34.39 50.3344 33.29 50.3344 32.11ZM66.0844 40V17.44L70.5544 16.72V24.28C70.8544 24.18 71.2344 24.09 71.6944 24.01C72.1744 23.91 72.6344 23.86 73.0744 23.86C74.3544 23.86 75.4144 24.04 76.2544 24.4C77.1144 24.74 77.7944 25.23 78.2944 25.87C78.8144 26.51 79.1744 27.27 79.3744 28.15C79.5944 29.03 79.7044 30.01 79.7044 31.09V40H75.2344V31.63C75.2344 30.19 75.0444 29.17 74.6644 28.57C74.3044 27.97 73.6244 27.67 72.6244 27.67C72.2244 27.67 71.8444 27.71 71.4844 27.79C71.1444 27.85 70.8344 27.92 70.5544 28V40H66.0844ZM97.2916 24.22C96.3916 27.26 95.4516 30.11 94.4716 32.77C93.4916 35.43 92.4216 38.01 91.2616 40.51C90.8416 41.41 90.4216 42.17 90.0016 42.79C89.5816 43.43 89.1216 43.95 88.6216 44.35C88.1216 44.77 87.5516 45.07 86.9116 45.25C86.2916 45.45 85.5616 45.55 84.7216 45.55C84.0216 45.55 83.3716 45.48 82.7716 45.34C82.1916 45.22 81.7116 45.08 81.3316 44.92L82.1116 41.35C82.5716 41.51 82.9816 41.62 83.3416 41.68C83.7016 41.74 84.0816 41.77 84.4816 41.77C85.2816 41.77 85.8916 41.55 86.3116 41.11C86.7516 40.69 87.1216 40.1 87.4216 39.34C86.4016 37.34 85.3816 35.1 84.3616 32.62C83.3416 30.12 82.3816 27.32 81.4816 24.22H86.2216C86.4216 25 86.6516 25.85 86.9116 26.77C87.1916 27.67 87.4816 28.59 87.7816 29.53C88.0816 30.45 88.3816 31.35 88.6816 32.23C89.0016 33.11 89.3016 33.91 89.5816 34.63C89.8416 33.91 90.1116 33.11 90.3916 32.23C90.6716 31.35 90.9416 30.45 91.2016 29.53C91.4816 28.59 91.7416 27.67 91.9816 26.77C92.2416 25.85 92.4716 25 92.6716 24.22H97.2916Z" fill="#C9B7AD"/>
<path d="M119 43V30.0565L109 21V43H119Z" fill="#C18F76"/>
<path d="M130.951 42.6862V29.9273L121.295 21V42.6862H130.951Z" fill="#C9B7AD"/>
</svg>
