<svg width="115" height="39" viewBox="0 0 115 39" fill="none" xmlns="http://www.w3.org/2000/svg">
<path d="M11.83 31.27C10.69 31.27 9.55 31.23 8.41 31.15C7.29 31.09 6.12 30.93 4.9 30.67V10.51C5.86 10.33 6.91 10.2 8.05 10.12C9.19 10.02 10.25 9.97 11.23 9.97C12.55 9.97 13.76 10.07 14.86 10.27C15.98 10.45 16.94 10.77 17.74 11.23C18.54 11.69 19.16 12.3 19.6 13.06C20.06 13.8 20.29 14.72 20.29 15.82C20.29 17.48 19.49 18.79 17.89 19.75C19.21 20.25 20.11 20.93 20.59 21.79C21.07 22.65 21.31 23.62 21.31 24.7C21.31 26.88 20.51 28.52 18.91 29.62C17.33 30.72 14.97 31.27 11.83 31.27ZM9.46 21.94V27.31C9.8 27.35 10.17 27.38 10.57 27.4C10.97 27.42 11.41 27.43 11.89 27.43C13.29 27.43 14.42 27.23 15.28 26.83C16.14 26.43 16.57 25.69 16.57 24.61C16.57 23.65 16.21 22.97 15.49 22.57C14.77 22.15 13.74 21.94 12.4 21.94H9.46ZM9.46 18.37H11.74C13.18 18.37 14.21 18.19 14.83 17.83C15.45 17.45 15.76 16.85 15.76 16.03C15.76 15.19 15.44 14.6 14.8 14.26C14.16 13.92 13.22 13.75 11.98 13.75C11.58 13.75 11.15 13.76 10.69 13.78C10.23 13.78 9.82 13.8 9.46 13.84V18.37ZM29.2263 31H24.7563V15.22H29.2263V31ZM29.6463 10.66C29.6463 11.48 29.3763 12.13 28.8363 12.61C28.3163 13.07 27.6963 13.3 26.9763 13.3C26.2563 13.3 25.6263 13.07 25.0863 12.61C24.5663 12.13 24.3063 11.48 24.3063 10.66C24.3063 9.84 24.5663 9.2 25.0863 8.74C25.6263 8.26 26.2563 8.02 26.9763 8.02C27.6963 8.02 28.3163 8.26 28.8363 8.74C29.3763 9.2 29.6463 9.84 29.6463 10.66ZM33.2781 11.29L37.7481 10.57V15.22H43.1181V18.94H37.7481V24.49C37.7481 25.43 37.9081 26.18 38.2281 26.74C38.5681 27.3 39.2381 27.58 40.2381 27.58C40.7181 27.58 41.2081 27.54 41.7081 27.46C42.2281 27.36 42.6981 27.23 43.1181 27.07L43.7481 30.55C43.2081 30.77 42.6081 30.96 41.9481 31.12C41.2881 31.28 40.4781 31.36 39.5181 31.36C38.2981 31.36 37.2881 31.2 36.4881 30.88C35.6881 30.54 35.0481 30.08 34.5681 29.5C34.0881 28.9 33.7481 28.18 33.5481 27.34C33.3681 26.5 33.2781 25.57 33.2781 24.55V11.29Z" fill="#C9B7AD"/>
<path d="M84.63 27.88C85.07 27.88 85.49 27.87 85.89 27.85C86.29 27.83 86.61 27.8 86.85 27.76V24.37C86.67 24.33 86.4 24.29 86.04 24.25C85.68 24.21 85.35 24.19 85.05 24.19C84.63 24.19 84.23 24.22 83.85 24.28C83.49 24.32 83.17 24.41 82.89 24.55C82.61 24.69 82.39 24.88 82.23 25.12C82.07 25.36 81.99 25.66 81.99 26.02C81.99 26.72 82.22 27.21 82.68 27.49C83.16 27.75 83.81 27.88 84.63 27.88ZM84.27 14.8C85.59 14.8 86.69 14.95 87.57 15.25C88.45 15.55 89.15 15.98 89.67 16.54C90.21 17.1 90.59 17.78 90.81 18.58C91.03 19.38 91.14 20.27 91.14 21.25V30.55C90.5 30.69 89.61 30.85 88.47 31.03C87.33 31.23 85.95 31.33 84.33 31.33C83.31 31.33 82.38 31.24 81.54 31.06C80.72 30.88 80.01 30.59 79.41 30.19C78.81 29.77 78.35 29.23 78.03 28.57C77.71 27.91 77.55 27.1 77.55 26.14C77.55 25.22 77.73 24.44 78.09 23.8C78.47 23.16 78.97 22.65 79.59 22.27C80.21 21.89 80.92 21.62 81.72 21.46C82.52 21.28 83.35 21.19 84.21 21.19C84.79 21.19 85.3 21.22 85.74 21.28C86.2 21.32 86.57 21.38 86.85 21.46V21.04C86.85 20.28 86.62 19.67 86.16 19.21C85.7 18.75 84.9 18.52 83.76 18.52C83 18.52 82.25 18.58 81.51 18.7C80.77 18.8 80.13 18.95 79.59 19.15L79.02 15.55C79.28 15.47 79.6 15.39 79.98 15.31C80.38 15.21 80.81 15.13 81.27 15.07C81.73 14.99 82.21 14.93 82.71 14.89C83.23 14.83 83.75 14.8 84.27 14.8ZM101.452 20.02L104.572 15.22H109.192L103.792 22.81C104.992 24.31 106.082 25.77 107.062 27.19C108.042 28.61 108.822 29.88 109.402 31H104.602C104.442 30.7 104.242 30.33 104.002 29.89C103.762 29.43 103.492 28.96 103.192 28.48C102.892 27.98 102.572 27.49 102.232 27.01C101.912 26.51 101.592 26.06 101.272 25.66C100.972 26.04 100.662 26.46 100.342 26.92C100.042 27.38 99.752 27.85 99.472 28.33C99.192 28.79 98.912 29.25 98.632 29.71C98.372 30.17 98.142 30.6 97.942 31H93.382C93.622 30.5 93.952 29.91 94.372 29.23C94.792 28.55 95.242 27.85 95.722 27.13C96.222 26.39 96.742 25.66 97.282 24.94C97.822 24.2 98.352 23.51 98.872 22.87C97.972 21.61 97.072 20.34 96.172 19.06C95.272 17.76 94.382 16.48 93.502 15.22H98.332L101.452 20.02Z" fill="#C9B7AD"/>
<path d="M55 11L57.9357 11.6118L60.584 13.3873L62.6857 16.1527L64.035 19.6373L64.5 23.5L64.035 27.3627L62.6857 30.8473L60.584 33.6127L57.9357 35.3882L55 36L52.0643 35.3882L49.416 33.6127L47.3143 30.8473L45.965 27.3627L45.5 23.5L45.965 19.6373L47.3143 16.1527L49.416 13.3873L52.0643 11.6118L55 11Z" fill="#C9B7AD"/>
<path d="M65 11L67.9357 11.6118L70.584 13.3873L72.6857 16.1527L74.035 19.6373L74.5 23.5L74.035 27.3627L72.6857 30.8473L70.584 33.6127L67.9357 35.3882L65 36L62.0643 35.3882L59.416 33.6127L57.3143 30.8473L55.965 27.3627L55.5 23.5L55.965 19.6373L57.3143 16.1527L59.416 13.3873L62.0643 11.6118L65 11Z" fill="#C18F76"/>
</svg>
