<svg width="116" height="64" viewBox="0 0 116 64" fill="none" xmlns="http://www.w3.org/2000/svg">
<path d="M31.2299 15L2.30273 29V36H114.303V1L66.0908 23L31.2299 15Z" fill="url(#paint0_linear_1_4674)"/>
<path d="M1.30273 29L30.7464 14.7544L66.2299 22.614L115.303 1" stroke="#C78A6C" stroke-linecap="round"/>
<path d="M21.8511 57.5H27.4907C29.0356 57.5 30.2729 57.1274 31.2026 56.3823C32.1392 55.6304 32.6074 54.5776 32.6074 53.2241C32.6074 52.2466 32.3784 51.4604 31.9204 50.8657C31.4624 50.271 30.8779 49.8711 30.167 49.666V49.625C30.7412 49.4268 31.2197 49.061 31.6025 48.5278C31.9922 47.9946 32.187 47.3145 32.187 46.4873C32.187 45.1543 31.7461 44.1699 30.8643 43.5342C29.9893 42.8916 28.7656 42.5703 27.1934 42.5703H21.8511V57.5ZM24.5684 55.4902V50.7017H27.3472C28.2085 50.7017 28.8408 50.917 29.2441 51.3477C29.6543 51.7783 29.8594 52.3594 29.8594 53.0908C29.8594 53.8291 29.6543 54.4136 29.2441 54.8442C28.8408 55.2749 28.2085 55.4902 27.3472 55.4902H24.5684ZM24.5684 48.8252V44.6006H27.0601C27.9214 44.6006 28.54 44.7817 28.916 45.144C29.292 45.4995 29.48 46.0156 29.48 46.6924C29.48 47.3623 29.292 47.8853 28.916 48.2612C28.54 48.6372 27.9214 48.8252 27.0601 48.8252H24.5684ZM34.6992 53.5625C34.6992 55.0527 35.0273 56.1191 35.6836 56.7617C36.3467 57.3975 37.208 57.7153 38.2676 57.7153C38.958 57.7153 39.5767 57.582 40.1235 57.3154C40.6772 57.042 41.1182 56.6763 41.4463 56.2183H41.4976L41.5591 57.5H44.0918V46.918H41.4155V54.1162C41.2104 54.5537 40.9131 54.916 40.5234 55.2031C40.1338 55.4902 39.6895 55.6338 39.1904 55.6338C38.623 55.6338 38.1787 55.48 37.8574 55.1724C37.5361 54.8647 37.3755 54.3315 37.3755 53.5728V46.918H34.6992V53.5625ZM46.7988 57.5H49.4854V46.918H46.7988V57.5ZM46.563 43.7803C46.563 44.1973 46.6997 44.5493 46.9731 44.8364C47.2466 45.1167 47.6362 45.2568 48.1421 45.2568C48.6548 45.2568 49.0479 45.1167 49.3213 44.8364C49.5947 44.5493 49.7314 44.1973 49.7314 43.7803C49.7314 43.3633 49.5947 43.0146 49.3213 42.7344C49.0479 42.4541 48.6582 42.314 48.1523 42.314C47.6396 42.314 47.2466 42.4541 46.9731 42.7344C46.6997 43.0146 46.563 43.3633 46.563 43.7803ZM52.2437 57.5H54.9199V41.9038H52.2437V57.5ZM57.0322 52.373C57.0322 53.9316 57.4355 55.21 58.2422 56.208C59.0557 57.2061 60.1631 57.7051 61.5645 57.7051C62.2617 57.7051 62.877 57.5615 63.4102 57.2744C63.9434 56.9805 64.3364 56.6182 64.5894 56.1875H64.6304L64.6919 57.5H67.2144V41.9038H64.5483V48.0664C64.2681 47.6562 63.875 47.3281 63.3691 47.082C62.8633 46.8359 62.2583 46.7129 61.5542 46.7129C60.2007 46.7129 59.1069 47.2119 58.2729 48.21C57.4458 49.2012 57.0322 50.4795 57.0322 52.0449V52.373ZM59.7598 52.4448V51.9629C59.7598 51.0264 59.9648 50.2573 60.375 49.6558C60.7852 49.0474 61.4038 48.7432 62.231 48.7432C62.812 48.7432 63.2974 48.897 63.687 49.2046C64.0767 49.5054 64.3604 49.8643 64.5381 50.2812V54.1162C64.3604 54.5332 64.0732 54.8989 63.6768 55.2134C63.2803 55.521 62.7983 55.6748 62.231 55.6748C61.397 55.6748 60.7749 55.374 60.3647 54.7725C59.9614 54.1641 59.7598 53.3882 59.7598 52.4448ZM74.9561 52.2295C74.9561 54.1299 75.4893 55.5312 76.5557 56.4336C77.6289 57.3359 78.9688 57.7871 80.5752 57.7871C82.1748 57.7871 83.5078 57.3359 84.5742 56.4336C85.6406 55.5312 86.1738 54.1299 86.1738 52.2295V42.5703H83.4565V52.3833C83.4565 53.5522 83.1934 54.3896 82.667 54.8955C82.1406 55.3945 81.4468 55.644 80.5854 55.644C79.7173 55.644 79.02 55.3945 78.4937 54.8955C77.9741 54.3896 77.7144 53.5522 77.7144 52.3833V42.5703H74.9561V52.2295ZM88.8911 61.7964H91.5674V56.3721C91.8545 56.7822 92.2612 57.1069 92.7876 57.3462C93.3208 57.5854 93.936 57.7051 94.6333 57.7051C95.9663 57.7051 97.0396 57.2163 97.853 56.2388C98.6665 55.2544 99.0732 53.9624 99.0732 52.3628V52.0347C99.0732 50.4282 98.6631 49.1396 97.8428 48.1689C97.0225 47.1914 95.9355 46.7026 94.582 46.7026C93.8848 46.7026 93.2593 46.8462 92.7056 47.1333C92.1519 47.4136 91.752 47.7656 91.5059 48.1895H91.4546L91.3931 46.918H88.8911V61.7964ZM91.5674 54.0957V50.2915C91.7451 49.8813 92.0322 49.5225 92.4287 49.2148C92.832 48.9004 93.3242 48.7432 93.9053 48.7432C94.7393 48.7432 95.3545 49.0337 95.751 49.6147C96.1475 50.189 96.3457 50.9614 96.3457 51.9321V52.4653C96.3457 53.436 96.1475 54.2153 95.751 54.8032C95.3545 55.3843 94.7427 55.6748 93.9155 55.6748C93.3481 55.6748 92.856 55.5176 92.439 55.2031C92.0288 54.8818 91.7383 54.5127 91.5674 54.0957Z" fill="#C9B7AD"/>
<defs>
<linearGradient id="paint0_linear_1_4674" x1="58.3027" y1="1" x2="58.1342" y2="35.501" gradientUnits="userSpaceOnUse">
<stop stop-color="#C78A6C"/>
<stop offset="1" stop-color="#F5F1EF"/>
</linearGradient>
</defs>
</svg>
