<svg width="145" height="40" viewBox="0 0 145 40" fill="none" xmlns="http://www.w3.org/2000/svg">
<path d="M24.64 10.47C27.74 10.47 30.12 11.02 31.78 12.12C33.44 13.2 34.27 14.98 34.27 17.46C34.27 19.96 33.43 21.77 31.75 22.89C30.07 23.99 27.67 24.54 24.55 24.54H23.08V31.5H18.4V11.01C19.42 10.81 20.5 10.67 21.64 10.59C22.78 10.51 23.78 10.47 24.64 10.47ZM24.94 14.46C24.6 14.46 24.26 14.47 23.92 14.49C23.6 14.51 23.32 14.53 23.08 14.55V20.55H24.55C26.17 20.55 27.39 20.33 28.21 19.89C29.03 19.45 29.44 18.63 29.44 17.43C29.44 16.85 29.33 16.37 29.11 15.99C28.91 15.61 28.61 15.31 28.21 15.09C27.83 14.85 27.36 14.69 26.8 14.61C26.24 14.51 25.62 14.46 24.94 14.46ZM46.9166 19.68C46.5166 19.58 46.0466 19.48 45.5066 19.38C44.9666 19.26 44.3866 19.2 43.7666 19.2C43.4866 19.2 43.1466 19.23 42.7466 19.29C42.3666 19.33 42.0766 19.38 41.8766 19.44V31.5H37.4066V16.56C38.2066 16.28 39.1466 16.02 40.2266 15.78C41.3266 15.52 42.5466 15.39 43.8866 15.39C44.1266 15.39 44.4166 15.41 44.7566 15.45C45.0966 15.47 45.4366 15.51 45.7766 15.57C46.1166 15.61 46.4566 15.67 46.7966 15.75C47.1366 15.81 47.4266 15.89 47.6666 15.99L46.9166 19.68ZM64.5299 23.58C64.5299 24.82 64.3499 25.96 63.9899 27C63.6299 28.02 63.1099 28.9 62.4299 29.64C61.7499 30.36 60.9299 30.92 59.9699 31.32C59.0299 31.72 57.9699 31.92 56.7899 31.92C55.6299 31.92 54.5699 31.72 53.6099 31.32C52.6699 30.92 51.8599 30.36 51.1799 29.64C50.4999 28.9 49.9699 28.02 49.5899 27C49.2099 25.96 49.0199 24.82 49.0199 23.58C49.0199 22.34 49.2099 21.21 49.5899 20.19C49.9899 19.17 50.5299 18.3 51.2099 17.58C51.9099 16.86 52.7299 16.3 53.6699 15.9C54.6299 15.5 55.6699 15.3 56.7899 15.3C57.9299 15.3 58.9699 15.5 59.9099 15.9C60.8699 16.3 61.6899 16.86 62.3699 17.58C63.0499 18.3 63.5799 19.17 63.9599 20.19C64.3399 21.21 64.5299 22.34 64.5299 23.58ZM59.9699 23.58C59.9699 22.2 59.6899 21.12 59.1299 20.34C58.5899 19.54 57.8099 19.14 56.7899 19.14C55.7699 19.14 54.9799 19.54 54.4199 20.34C53.8599 21.12 53.5799 22.2 53.5799 23.58C53.5799 24.96 53.8599 26.06 54.4199 26.88C54.9799 27.68 55.7699 28.08 56.7899 28.08C57.8099 28.08 58.5899 27.68 59.1299 26.88C59.6899 26.06 59.9699 24.96 59.9699 23.58Z" fill="#CAB7AD"/>
<path d="M74.2926 31.8C72.9926 31.78 71.9326 31.64 71.1126 31.38C70.3126 31.12 69.6726 30.76 69.1926 30.3C68.7326 29.82 68.4126 29.25 68.2326 28.59C68.0726 27.91 67.9926 27.15 67.9926 26.31V8.94L72.4626 8.22V25.41C72.4626 25.81 72.4926 26.17 72.5526 26.49C72.6126 26.81 72.7226 27.08 72.8826 27.3C73.0626 27.52 73.3126 27.7 73.6326 27.84C73.9526 27.98 74.3826 28.07 74.9226 28.11L74.2926 31.8ZM83.9542 28.38C84.3942 28.38 84.8142 28.37 85.2142 28.35C85.6142 28.33 85.9342 28.3 86.1742 28.26V24.87C85.9942 24.83 85.7242 24.79 85.3642 24.75C85.0042 24.71 84.6742 24.69 84.3742 24.69C83.9542 24.69 83.5542 24.72 83.1742 24.78C82.8142 24.82 82.4942 24.91 82.2142 25.05C81.9342 25.19 81.7142 25.38 81.5542 25.62C81.3942 25.86 81.3142 26.16 81.3142 26.52C81.3142 27.22 81.5442 27.71 82.0042 27.99C82.4842 28.25 83.1342 28.38 83.9542 28.38ZM83.5942 15.3C84.9142 15.3 86.0142 15.45 86.8942 15.75C87.7742 16.05 88.4742 16.48 88.9942 17.04C89.5342 17.6 89.9142 18.28 90.1342 19.08C90.3542 19.88 90.4642 20.77 90.4642 21.75V31.05C89.8242 31.19 88.9342 31.35 87.7942 31.53C86.6542 31.73 85.2742 31.83 83.6542 31.83C82.6342 31.83 81.7042 31.74 80.8642 31.56C80.0442 31.38 79.3342 31.09 78.7342 30.69C78.1342 30.27 77.6742 29.73 77.3542 29.07C77.0342 28.41 76.8742 27.6 76.8742 26.64C76.8742 25.72 77.0542 24.94 77.4142 24.3C77.7942 23.66 78.2942 23.15 78.9142 22.77C79.5342 22.39 80.2442 22.12 81.0442 21.96C81.8442 21.78 82.6742 21.69 83.5342 21.69C84.1142 21.69 84.6242 21.72 85.0642 21.78C85.5242 21.82 85.8942 21.88 86.1742 21.96V21.54C86.1742 20.78 85.9442 20.17 85.4842 19.71C85.0242 19.25 84.2242 19.02 83.0842 19.02C82.3242 19.02 81.5742 19.08 80.8342 19.2C80.0942 19.3 79.4542 19.45 78.9142 19.65L78.3442 16.05C78.6042 15.97 78.9242 15.89 79.3042 15.81C79.7042 15.71 80.1342 15.63 80.5942 15.57C81.0542 15.49 81.5342 15.43 82.0342 15.39C82.5542 15.33 83.0742 15.3 83.5942 15.3ZM94.5063 16.26C95.2663 16.04 96.2463 15.84 97.4463 15.66C98.6463 15.46 99.9063 15.36 101.226 15.36C102.566 15.36 103.676 15.54 104.556 15.9C105.456 16.24 106.166 16.73 106.686 17.37C107.206 18.01 107.576 18.77 107.796 19.65C108.016 20.53 108.126 21.51 108.126 22.59V31.5H103.656V23.13C103.656 21.69 103.466 20.67 103.086 20.07C102.706 19.47 101.996 19.17 100.956 19.17C100.636 19.17 100.296 19.19 99.9363 19.23C99.5763 19.25 99.2563 19.28 98.9763 19.32V31.5H94.5063V16.26ZM115.982 23.49C115.982 24.87 116.292 25.98 116.912 26.82C117.532 27.66 118.452 28.08 119.672 28.08C120.072 28.08 120.442 28.07 120.782 28.05C121.122 28.01 121.402 27.97 121.622 27.93V19.8C121.342 19.62 120.972 19.47 120.512 19.35C120.072 19.23 119.622 19.17 119.162 19.17C117.042 19.17 115.982 20.61 115.982 23.49ZM126.092 30.99C125.692 31.11 125.232 31.23 124.712 31.35C124.192 31.45 123.642 31.54 123.062 31.62C122.502 31.7 121.922 31.76 121.322 31.8C120.742 31.86 120.182 31.89 119.642 31.89C118.342 31.89 117.182 31.7 116.162 31.32C115.142 30.94 114.282 30.4 113.582 29.7C112.882 28.98 112.342 28.12 111.962 27.12C111.602 26.1 111.422 24.96 111.422 23.7C111.422 22.42 111.582 21.27 111.902 20.25C112.222 19.21 112.682 18.33 113.282 17.61C113.882 16.89 114.612 16.34 115.472 15.96C116.352 15.58 117.352 15.39 118.472 15.39C119.092 15.39 119.642 15.45 120.122 15.57C120.622 15.69 121.122 15.86 121.622 16.08V8.94L126.092 8.22V30.99Z" fill="#C9B7AD"/>
</svg>
