<svg width="145" height="42" viewBox="0 0 145 42" fill="none" xmlns="http://www.w3.org/2000/svg">
<path d="M14 32.9459C17.0576 34.212 20.1733 35.1903 23.3472 35.9384C26.4978 36.7211 29.7065 37.2735 32.9152 37.6188C34.5196 37.8375 36.1356 37.8605 37.7283 38.0101C39.3443 38.0216 40.9487 38.1482 42.5531 38.0562L44.9596 37.9986C45.7618 37.9871 46.564 37.8835 47.3662 37.8375C48.1683 37.7684 48.9705 37.7339 49.7611 37.6303L52.1444 37.2965C55.3415 36.9512 58.4456 36.2146 61.5381 35.3284C64.6654 34.4767 67.6184 33.3487 70.7457 32.1748C73.9428 31.0123 77.4073 30.2527 80.9183 30.621C82.6506 30.8397 84.3945 31.3921 85.8128 32.405C87.2428 33.4063 88.2659 34.8335 88.9169 36.3297C87.9403 34.9946 86.7196 33.9012 85.3129 33.2221C83.9062 32.5431 82.3599 32.2668 80.8253 32.3129C77.7212 32.3589 74.6636 33.3833 71.792 34.6723C68.8739 36.0995 65.7117 37.3886 62.5262 38.459C59.3175 39.4833 56.0041 40.3005 52.6443 40.7149C45.9594 41.5896 39.1118 41.6011 32.5083 40.2775C29.195 39.679 25.963 38.7467 22.8356 37.5613C19.7315 36.3297 16.6972 34.891 14 32.9459Z" fill="#C78A6C"/>
<path d="M18.5558 22.5V9.59894H14.3106V7.23823H25.3894V9.59894H21.1442V22.5H18.5558ZM27.311 22.5L25.0124 20.2014V13.989L27.311 11.6697H32.2809L34.5795 13.989V18.0064H27.5181V19.5388L28.4292 20.4499H34.3931V22.5H27.311ZM27.5181 16.0805H32.0738V14.5274L31.1627 13.6163H28.4292L27.5181 14.5274V16.0805ZM39.5659 22.5L37.2673 20.2014V13.989L39.5659 11.6697H44.7429L46.8137 13.6991V15.7285H44.308V14.5274L43.3969 13.6163H40.6842L39.773 14.5274V19.5388L40.6842 20.4499H46.7309V22.5H39.5659ZM49.3047 22.5V7.23823H51.8103V13.2642L53.4048 11.6697H57.2772L59.5758 13.989V22.5H57.0701V14.5688L56.2004 13.6163H54.0261L51.8103 15.8113V22.5H49.3047ZM67.5883 22.5V7.23823H70.1768V13.3678H76.8655V7.23823H79.454V22.5H76.8655V15.6457H70.1768V22.5H67.5883ZM84.7635 22.5L82.4649 20.2014V13.989L84.7635 11.6697H90.189L92.4876 13.989V20.2014L90.189 22.5H84.7635ZM85.8817 20.5742L89.0707 20.5535L89.9819 19.6423V14.5274L89.0707 13.6163H85.8817L84.9706 14.5274V19.6423L85.8817 20.5742ZM97.5871 22.5L95.2885 20.2014V11.6697H97.7941V19.6009L98.6639 20.5535H100.755L102.95 18.3998V11.6697H105.456V22.5H102.95V20.9469L101.377 22.5H97.5871ZM108.702 22.5V20.4499H114.376L115.204 19.6009V18.8968L114.231 17.9235H110.214L108.101 15.8527V13.7612L110.172 11.6697H116.55V13.7198H111.415L110.607 14.5274V15.0037L111.539 15.9356H115.598L117.71 18.0064V20.4292L115.639 22.5H108.702ZM122.297 22.5L119.998 20.2014V13.989L122.297 11.6697H127.267L129.565 13.989V18.0064H122.504V19.5388L123.415 20.4499H129.379V22.5H122.297ZM122.504 16.0805H127.06V14.5274L126.148 13.6163H123.415L122.504 14.5274V16.0805Z" fill="#C9B7AD"/>
</svg>
